<svg width="10" height="8" viewBox="0 0 10 8" fill="none" xmlns="http://www.w3.org/2000/svg">
<path d="M9.49427 2.07822C9.52496 1.90418 9.48525 1.72507 9.38389 1.58031C9.28252 1.43554 9.1278 1.33698 8.95376 1.30629L3.70977 0.3478C3.53573 0.317111 3.35663 0.356818 3.21186 0.458184C3.0671 0.559549 2.96853 0.714271 2.93784 0.888311C2.90715 1.06235 2.94686 1.24146 3.04823 1.38622C3.14959 1.53099 3.30431 1.62955 3.47835 1.66024L7.12695 2.30359L0.740763 6.78675C0.668499 6.8369 0.606883 6.90088 0.559467 6.97497C0.512051 7.04906 0.479775 7.13181 0.4645 7.21844C0.449225 7.30506 0.451253 7.39386 0.470469 7.4797C0.489684 7.56554 0.525705 7.64673 0.576455 7.71858C0.626614 7.79084 0.690585 7.85246 0.764677 7.89988C0.838769 7.94729 0.921517 7.97957 1.00815 7.99484C1.09477 8.01012 1.18357 8.00809 1.26941 7.98887C1.35525 7.96966 1.43644 7.93364 1.50829 7.88289L7.9076 3.40204L7.26194 7.06376C7.23125 7.2378 7.27096 7.4169 7.37232 7.56167C7.47369 7.70643 7.62841 7.805 7.80245 7.83569C7.97649 7.86638 8.15559 7.82667 8.30036 7.72531C8.44512 7.62394 8.54369 7.46922 8.57438 7.29518L9.49427 2.07822Z" fill="black"/>
</svg>
