<svg width="18" height="17" viewBox="0 0 18 17" fill="none" xmlns="http://www.w3.org/2000/svg">
<path d="M17.9998 8.44741C17.9788 6.81761 17.468 5.22746 16.5277 3.86424C15.5874 2.50102 14.2569 1.42151 12.6926 0.752833C11.1283 0.0841598 9.39547 -0.145819 7.69825 0.0899649C6.00106 0.32576 4.41008 1.01749 3.11273 2.08373C1.81537 3.14996 0.865647 4.54628 0.375414 6.10823C-0.114808 7.6702 -0.125135 9.33271 0.345668 10.9001C0.816472 12.4675 1.74879 13.8742 3.03282 14.955C4.31684 16.0357 5.89912 16.7452 7.59329 17V10.9384H5.34323V8.44741H7.59329V6.55515C7.5412 6.11519 7.59137 5.66969 7.74033 5.25015C7.88928 4.8306 8.1333 4.44723 8.45517 4.1271C8.77704 3.80695 9.16889 3.55785 9.60316 3.39737C10.0374 3.23688 10.5035 3.16892 10.9684 3.1983C11.6432 3.20707 12.3164 3.26426 12.9822 3.36935V5.50749H11.8572C11.6632 5.48424 11.4661 5.50271 11.2807 5.56155C11.0952 5.62038 10.926 5.71806 10.7856 5.84737C10.6452 5.97669 10.5372 6.13433 10.4695 6.30863C10.4018 6.48299 10.3763 6.66954 10.3946 6.85449V8.46879H12.8922L12.4872 10.9597H10.4059V16.9465C12.5321 16.627 14.4673 15.5938 15.8606 14.0345C17.2538 12.4751 18.0128 10.493 17.9998 8.44741Z" fill="black"/>
</svg>
