<?xml version="1.0" encoding="utf-8"?>
<svg viewBox="0 0 18 17" fill="none" xmlns="http://www.w3.org/2000/svg">
  <path fill-rule="evenodd" clip-rule="evenodd" d="M0.535058 2.5315C0 3.52327 0 4.82158 0 7.41818V9.58182C0 12.1784 0 13.4767 0.535058 14.4685C1.00571 15.3409 1.7567 16.0502 2.68041 16.4946C3.73052 17 5.1052 17 7.85455 17H10.1455C12.8948 17 14.2695 17 15.3196 16.4946C16.2433 16.0502 16.9943 15.3409 17.4649 14.4685C18 13.4767 18 12.1784 18 9.58182V7.41818C18 4.82158 18 3.52327 17.4649 2.5315C16.9943 1.65911 16.2433 0.949836 15.3196 0.505333C14.2695 0 12.8948 0 10.1455 0H7.85455C5.1052 0 3.73052 0 2.68041 0.505333C1.7567 0.949836 1.00571 1.65911 0.535058 2.5315ZM10.1455 1.54545H7.85455C6.45287 1.54545 5.50002 1.54666 4.76352 1.60349C4.04611 1.65884 3.67923 1.75918 3.42331 1.88234C2.8075 2.17868 2.30684 2.65153 1.99307 3.23312C1.86266 3.47483 1.75642 3.82132 1.69781 4.49888C1.63764 5.19447 1.63636 6.09438 1.63636 7.41818V9.58182C1.63636 10.9057 1.63764 11.8055 1.69781 12.5011C1.75642 13.1787 1.86266 13.5252 1.99307 13.7669C2.30684 14.3485 2.8075 14.8213 3.42331 15.1176C3.67923 15.2408 4.04611 15.3412 4.76352 15.3965C5.50002 15.4533 6.45287 15.4545 7.85455 15.4545H10.1455C11.5472 15.4545 12.4999 15.4533 13.2365 15.3965C13.9539 15.3412 14.3208 15.2408 14.5767 15.1176C15.1925 14.8213 15.6931 14.3485 16.0069 13.7669C16.1373 13.5252 16.2436 13.1787 16.3022 12.5011C16.3623 11.8055 16.3636 10.9057 16.3636 9.58182V7.41818C16.3636 6.09438 16.3623 5.19447 16.3022 4.49888C16.2436 3.82132 16.1373 3.47483 16.0069 3.23312C15.6931 2.65153 15.1925 2.17868 14.5767 1.88234C14.3208 1.75918 13.9539 1.65884 13.2365 1.60349C12.4999 1.54666 11.5472 1.54545 10.1455 1.54545Z" fill="#0F0F0F"/>
  <path fill-rule="evenodd" clip-rule="evenodd" d="M 9.033 13.123 C 11.558 13.123 13.605 11.197 13.605 8.82 C 13.605 6.443 11.558 4.516 9.033 4.516 C 6.507 4.516 4.46 6.443 4.46 8.82 C 4.46 11.197 6.507 13.123 9.033 13.123 Z M 9.033 11.689 C 10.717 11.689 12.08 10.404 12.08 8.82 C 12.08 7.237 10.717 5.952 9.033 5.952 C 7.349 5.952 5.983 7.237 5.983 8.82 C 5.983 10.404 7.349 11.689 9.033 11.689 Z" fill="#0F0F0F" style=""/>
  <path d="M 13.154 4.048 C 12.901 4.048 12.698 4.263 12.698 4.527 C 12.698 4.79 12.901 5.004 13.154 5.004 C 13.407 5.004 13.612 4.79 13.612 4.527 C 13.612 4.263 13.407 4.048 13.154 4.048 Z" fill="#0F0F0F" style=""/>
</svg>