<svg width="21" height="17" viewBox="0 0 21 17" fill="none" xmlns="http://www.w3.org/2000/svg">
<path fill-rule="evenodd" clip-rule="evenodd" d="M6.6045 17C14.5288 17 18.8632 10.4587 18.8632 4.7868C18.8632 4.60059 18.8632 4.41579 18.8506 4.23168C19.6938 3.62494 20.4214 2.87161 21 2.00963C20.2146 2.35694 19.3798 2.5847 18.5262 2.68512C19.425 2.14848 20.098 1.30538 20.4204 0.310546C19.5741 0.810576 18.649 1.16348 17.6841 1.35283C16.0524 -0.37532 13.3234 -0.459049 11.5878 1.16658C10.4695 2.21476 9.9939 3.77758 10.3414 5.26825C6.8775 5.09461 3.6498 3.46482 1.4616 0.783697C0.31815 2.74511 0.903 5.25337 2.79615 6.51287C2.1105 6.49299 1.43955 6.30907 0.84 5.97642V6.0309C0.84105 8.07392 2.2869 9.83306 4.2966 10.2379C3.6624 10.4105 2.9967 10.4355 2.352 10.311C2.91585 12.0601 4.5339 13.2581 6.37665 13.2926C4.851 14.4873 2.96625 15.1359 1.02585 15.1339C0.68355 15.1328 0.34125 15.1129 0 15.0721C1.97085 16.3316 4.263 17 6.6045 16.9969" fill="black"/>
</svg>
